<svg width="0" height="0" class="hidden">
	<symbol xmlns="http://www.w3.org/2000/svg" viewBox="0 0 88 35" id="logo">
		<path d="M15.1873 11.0023C17.8148 11.0023 19.9006 11.8827 21.4446 13.6434C22.9886 15.377 23.7606 17.7337 23.7606 20.7134V34H15.7968V21.7698C15.7968 20.4696 15.4582 19.4538 14.781 18.7224C14.1038 17.9639 13.1963 17.5847 12.0586 17.5847C10.8668 17.5847 9.93223 17.9639 9.25503 18.7224C8.57784 19.4538 8.23924 20.4696 8.23924 21.7698V34H0.275391V11.2055H8.23924V14.4561C8.94352 13.4267 9.8916 12.6005 11.0835 11.9775C12.2753 11.3274 13.6433 11.0023 15.1873 11.0023Z" fill="currentColor"></path>
		<path d="M32.153 9.09265C30.7444 9.09265 29.6067 8.71342 28.7399 7.95496C27.9002 7.16941 27.4803 6.19424 27.4803 5.02946C27.4803 3.83759 27.9002 2.84889 28.7399 2.06334C29.6067 1.27779 30.7444 0.88501 32.153 0.88501C33.5345 0.88501 34.6451 1.27779 35.4848 2.06334C36.3516 2.84889 36.785 3.83759 36.785 5.02946C36.785 6.19424 36.3516 7.16941 35.4848 7.95496C34.6451 8.71342 33.5345 9.09265 32.153 9.09265ZM36.0943 11.2055V34H28.1304V11.2055H36.0943Z" fill="currentColor"></path>
		<path d="M39.3293 22.5824C39.3293 20.2258 39.8169 18.1671 40.792 16.4064C41.7672 14.6457 43.1216 13.2913 44.8552 12.3432C46.6159 11.3951 48.6204 10.9211 50.8687 10.9211C53.7671 10.9211 56.2051 11.7202 58.1825 13.3184C60.1599 14.8895 61.433 17.0971 62.0019 19.9414H53.5504C53.0629 18.4515 52.1148 17.7066 50.7062 17.7066C49.704 17.7066 48.9049 18.1265 48.3089 18.9662C47.7401 19.7788 47.4557 20.9842 47.4557 22.5824C47.4557 24.1806 47.7401 25.3996 48.3089 26.2393C48.9049 27.079 49.704 27.4989 50.7062 27.4989C52.1419 27.4989 53.0899 26.754 53.5504 25.2641H62.0019C61.433 28.0813 60.1599 30.2889 58.1825 31.8871C56.2051 33.4853 53.7671 34.2844 50.8687 34.2844C48.6204 34.2844 46.6159 33.8104 44.8552 32.8623C43.1216 31.9142 41.7672 30.5598 40.792 28.7991C39.8169 27.0384 39.3293 24.9662 39.3293 22.5824Z" fill="currentColor"></path>
		<path d="M87.0889 22.3386C87.0889 22.9617 87.0482 23.5847 86.967 24.2077H71.8926C71.9738 25.4537 72.3124 26.3883 72.9083 27.0113C73.5314 27.6072 74.3169 27.9052 75.265 27.9052C76.5923 27.9052 77.5404 27.3093 78.1092 26.1174H86.6013C86.2492 27.6885 85.5584 29.0971 84.5291 30.3431C83.5268 31.5621 82.2537 32.5237 80.7097 33.228C79.1657 33.9323 77.4591 34.2844 75.5901 34.2844C73.3418 34.2844 71.3372 33.8104 69.5765 32.8623C67.8429 31.9142 66.475 30.5598 65.4727 28.7991C64.4976 27.0384 64.01 24.9662 64.01 22.5824C64.01 20.1987 64.4976 18.14 65.4727 16.4064C66.4479 14.6457 67.8023 13.2913 69.5359 12.3432C71.2966 11.3951 73.3147 10.9211 75.5901 10.9211C77.8384 10.9211 79.8293 11.3816 81.5629 12.3026C83.2966 13.2236 84.651 14.5509 85.6261 16.2845C86.6013 17.991 87.0889 20.0091 87.0889 22.3386ZM78.9625 20.3477C78.9625 19.3725 78.6374 18.6141 77.9873 18.0723C77.3372 17.5034 76.5246 17.219 75.5494 17.219C74.5743 17.219 73.7752 17.4899 73.1521 18.0317C72.5291 18.5463 72.1228 19.3183 71.9332 20.3477H78.9625Z" fill="currentColor"></path>
	</symbol>
	<symbol xmlns="http://www.w3.org/2000/svg" viewBox="0 0 18 18" id="facebook">
		<path d="M13.1885 10.125L13.6885 6.86742H10.5627V4.75348C10.5627 3.86227 10.9994 2.99355 12.3993 2.99355H13.8203V0.220078C13.8203 0.220078 12.5308 0 11.2978 0C8.72369 0 7.04112 1.56023 7.04112 4.38469V6.86742H4.17975V10.125H7.04112V18H10.5627V10.125H13.1885Z" fill="currentColor"></path>
	</symbol>
	<symbol xmlns="http://www.w3.org/2000/svg" viewBox="0 0 20 20" id="instagram">
		<path d="M10.0039 5.50781C7.51953 5.50781 5.51562 7.51172 5.51562 9.99609C5.51562 12.4805 7.51953 14.4844 10.0039 14.4844C12.4883 14.4844 14.4922 12.4805 14.4922 9.99609C14.4922 7.51172 12.4883 5.50781 10.0039 5.50781ZM10.0039 12.9141C8.39844 12.9141 7.08594 11.6055 7.08594 9.99609C7.08594 8.38672 8.39453 7.07812 10.0039 7.07812C11.6133 7.07812 12.9219 8.38672 12.9219 9.99609C12.9219 11.6055 11.6094 12.9141 10.0039 12.9141ZM15.7227 5.32422C15.7227 5.90625 15.2539 6.37109 14.6758 6.37109C14.0938 6.37109 13.6289 5.90234 13.6289 5.32422C13.6289 4.74609 14.0977 4.27734 14.6758 4.27734C15.2539 4.27734 15.7227 4.74609 15.7227 5.32422ZM18.6953 6.38672C18.6289 4.98438 18.3086 3.74219 17.2812 2.71875C16.2578 1.69531 15.0156 1.375 13.6133 1.30469C12.168 1.22266 7.83594 1.22266 6.39062 1.30469C4.99219 1.37109 3.75 1.69141 2.72266 2.71484C1.69531 3.73828 1.37891 4.98047 1.30859 6.38281C1.22656 7.82812 1.22656 12.1602 1.30859 13.6055C1.375 15.0078 1.69531 16.25 2.72266 17.2734C3.75 18.2969 4.98828 18.6172 6.39062 18.6875C7.83594 18.7695 12.168 18.7695 13.6133 18.6875C15.0156 18.6211 16.2578 18.3008 17.2812 17.2734C18.3047 16.25 18.625 15.0078 18.6953 13.6055C18.7773 12.1602 18.7773 7.83203 18.6953 6.38672ZM16.8281 15.1562C16.5234 15.9219 15.9336 16.5117 15.1641 16.8203C14.0117 17.2773 11.2773 17.1719 10.0039 17.1719C8.73047 17.1719 5.99219 17.2734 4.84375 16.8203C4.07812 16.5156 3.48828 15.9258 3.17969 15.1562C2.72266 14.0039 2.82813 11.2695 2.82813 9.99609C2.82813 8.72266 2.72656 5.98438 3.17969 4.83594C3.48438 4.07031 4.07422 3.48047 4.84375 3.17187C5.99609 2.71484 8.73047 2.82031 10.0039 2.82031C11.2773 2.82031 14.0156 2.71875 15.1641 3.17187C15.9297 3.47656 16.5195 4.06641 16.8281 4.83594C17.2852 5.98828 17.1797 8.72266 17.1797 9.99609C17.1797 11.2695 17.2852 14.0078 16.8281 15.1562Z" fill="currentColor"></path>
	</symbol>
	<symbol  xmlns="http://www.w3.org/2000/svg" viewBox="0 0 25 25" id="cross">
		<path d="M12.5 0.390625C5.81055 0.390625 0.390625 5.81055 0.390625 12.5C0.390625 19.1895 5.81055 24.6094 12.5 24.6094C19.1895 24.6094 24.6094 19.1895 24.6094 12.5C24.6094 5.81055 19.1895 0.390625 12.5 0.390625ZM19.5312 13.8672C19.5312 14.1895 19.2676 14.4531 18.9453 14.4531H14.4531V18.9453C14.4531 19.2676 14.1895 19.5312 13.8672 19.5312H11.1328C10.8105 19.5312 10.5469 19.2676 10.5469 18.9453V14.4531H6.05469C5.73242 14.4531 5.46875 14.1895 5.46875 13.8672V11.1328C5.46875 10.8105 5.73242 10.5469 6.05469 10.5469H10.5469V6.05469C10.5469 5.73242 10.8105 5.46875 11.1328 5.46875H13.8672C14.1895 5.46875 14.4531 5.73242 14.4531 6.05469V10.5469H18.9453C19.2676 10.5469 19.5312 10.8105 19.5312 11.1328V13.8672Z" fill="#7000FF"></path>
	</symbol>
	<symbol xmlns="http://www.w3.org/2000/svg" xml:space="preserve" viewBox="0 0 512 512" id="whatsapp">
		<path xmlns="http://www.w3.org/2000/svg" d="m0 512 35.31-128C12.359 344.276 0 300.138 0 254.234 0 114.759 114.759 0 255.117 0S512 114.759 512 254.234 395.476 512 255.117 512c-44.138 0-86.51-14.124-124.469-35.31L0 512z" fill="#ededed" data-original="#ededed"></path>
		<path xmlns="http://www.w3.org/2000/svg" d="m137.71 430.786 7.945 4.414c32.662 20.303 70.621 32.662 110.345 32.662 115.641 0 211.862-96.221 211.862-213.628S371.641 44.138 255.117 44.138 44.138 137.71 44.138 254.234c0 40.607 11.476 80.331 32.662 113.876l5.297 7.945-20.303 74.152 75.916-19.421z" fill="#55cd6c" data-original="#55cd6c"></path>
		<path xmlns="http://www.w3.org/2000/svg" d="m187.145 135.945-16.772-.883c-5.297 0-10.593 1.766-14.124 5.297-7.945 7.062-21.186 20.303-24.717 37.959-6.179 26.483 3.531 58.262 26.483 90.041s67.09 82.979 144.772 105.048c24.717 7.062 44.138 2.648 60.028-7.062 12.359-7.945 20.303-20.303 22.952-33.545l2.648-12.359c.883-3.531-.883-7.945-4.414-9.71l-55.614-25.6c-3.531-1.766-7.945-.883-10.593 2.648l-22.069 28.248c-1.766 1.766-4.414 2.648-7.062 1.766-15.007-5.297-65.324-26.483-92.69-79.448-.883-2.648-.883-5.297.883-7.062l21.186-23.834c1.766-2.648 2.648-6.179 1.766-8.828l-25.6-57.379c-.884-2.649-3.532-5.297-7.063-5.297" fill="#fefefe" data-original="#fefefe"></path>
	</symbol>
	<symbol  xmlns="http://www.w3.org/2000/svg" viewBox="0 0 22 21" id="toggle">
		<path d="M0.78125 4.44531H21.0938C21.5252 4.44531 21.875 4.09556 21.875 3.66406V1.71094C21.875 1.27944 21.5252 0.929688 21.0938 0.929688H0.78125C0.349756 0.929688 0 1.27944 0 1.71094V3.66406C0 4.09556 0.349756 4.44531 0.78125 4.44531ZM0.78125 12.2578H15.0938C15.5252 12.2578 15.875 11.9081 15.875 11.4766V9.52344C15.875 9.09194 15.5252 8.74219 15.0938 8.74219H0.78125C0.349756 8.74219 0 9.09194 0 9.52344V11.4766C0 11.9081 0.349756 12.2578 0.78125 12.2578ZM0.78125 20.0703H21.0938C21.5252 20.0703 21.875 19.7206 21.875 19.2891V17.3359C21.875 16.9044 21.5252 16.5547 21.0938 16.5547H0.78125C0.349756 16.5547 0 16.9044 0 17.3359V19.2891C0 19.7206 0.349756 20.0703 0.78125 20.0703Z" fill="currentColor"></path>
	</symbol>
</svg>